<?xml version="1.0" encoding="utf-8"?>
<!-- Generator: Adobe Illustrator 25.4.1, SVG Export Plug-In . SVG Version: 6.00 Build 0)  -->
<svg version="1.1" id="Layer_1" xmlns="http://www.w3.org/2000/svg" xmlns:xlink="http://www.w3.org/1999/xlink" x="0px" y="0px"
	 viewBox="0 0 89.5 11.2" style="enable-background:new 0 0 89.5 11.2;" xml:space="preserve">
<g>
	<g>
		<path d="M10.1,6.1c0,3.1-1.8,3.9-4.5,3.9C3,10,1.3,9.2,1.3,6.1V5.6h2.6v0.6c0,1.3,0.7,1.7,1.8,1.7c1,0,1.8-0.4,1.8-1.7V1.5h2.6
			V6.1z"/>
		<path d="M22.1,5.6c0,3-2.1,4.4-5.4,4.4s-5.4-1.4-5.4-4.4s2.1-4.4,5.4-4.4S22.1,2.6,22.1,5.6z M19.2,5.6c0-1.4-0.8-2.2-2.5-2.2
			c-1.7,0-2.5,0.8-2.5,2.2c0,1.4,0.8,2.2,2.5,2.2C18.4,7.8,19.2,7,19.2,5.6z"/>
		<path d="M25.7,4.6h5.4v1.8h-5.4v1.3h5.7v2h-8.4V1.5h8.3v2h-5.6V4.6z"/>
		<path d="M38.3,7v2.7h-2.7V7l-3.9-5.5h3.1L37,4.7l2.1-3.2h3.1L38.3,7z"/>
		<path d="M56.6,9.7h-3.2l-2.5-3.6l-1.6,1.4v2.2h-2.6V1.5h2.6v3.3l3.5-3.3H56l-3.3,2.9L56.6,9.7z"/>
		<path d="M66.6,1.5v8.2h-3l-3.9-5h-0.1v5h-2.5V1.5h3.1L64,6.4h0.1V1.5H66.6z"/>
		<path d="M78.4,5.6c0,3-2.1,4.4-5.4,4.4c-3.3,0-5.4-1.4-5.4-4.4s2.1-4.4,5.4-4.4C76.3,1.2,78.4,2.6,78.4,5.6z M75.5,5.6
			c0-1.4-0.8-2.2-2.5-2.2c-1.7,0-2.5,0.8-2.5,2.2c0,1.4,0.8,2.2,2.5,2.2C74.7,7.8,75.5,7,75.5,5.6z"/>
		<path d="M88.3,9.7h-3.4L83,7.2l-1.9,2.5h-3.4l3.6-4.3l-3.2-3.9h3.3L83,3.7l1.5-2.2h3.3l-3.2,3.9L88.3,9.7z"/>
	</g>
</g>
</svg>
